<svg xmlns="http://www.w3.org/2000/svg" viewBox="0 0 249.19 237.97"><defs><style>.cls-1,.cls-3{fill:#d70c3f;}.cls-2{fill:#fff;}.cls-3{font-size:45px;font-family:MyriadPro-Regular, Myriad Pro;letter-spacing:0.04em;}.cls-4{letter-spacing:0.04em;}.cls-4,.cls-5,.cls-6{fill:#000;}.cls-5{letter-spacing:-0.04em;}</style></defs><title>japon</title><g id="logo"><circle class="cls-1" cx="141.28" cy="82.21" r="82.21"/><path d="M1032.1,630.38H782.91s36.84-25.59,79.23-80.8c8.18-10.65,16.57-22.4,24.94-35.28h40.85c9.91,15.26,19.85,28.93,29.44,41.06C997.84,606.57,1032.1,630.38,1032.1,630.38Z" transform="translate(-782.91 -446.16)"/><path class="cls-2" d="M915,537.36l6.38,13.28L908.65,540l-23.74,12.94L890,542l-27.83,7.66-.05,0c8.18-10.65,16.57-22.4,24.94-35.28h40.85c9.91,15.26,19.85,28.93,29.44,41.06Z" transform="translate(-782.91 -446.16)"/></g><g id="Calque_3" data-name="Calque 3"><text class="cls-3" transform="translate(80.84 226.72) scale(0.67 1)">J<tspan class="cls-4" x="18.45" y="0">A</tspan><tspan class="cls-5" x="47.79" y="0">P</tspan><tspan class="cls-6" x="69.75" y="0">AN</tspan></text></g></svg>