<svg id="logo" xmlns="http://www.w3.org/2000/svg" viewBox="0 0 249.19 184.22"><defs><style>.cls-1{fill:#d70c3f;}.cls-2{fill:#fff;}</style></defs><title>logo-japon-sans-texte</title><circle class="cls-1" cx="141.28" cy="82.21" r="82.21"/><path d="M1032.1,630.38H782.91s36.84-25.59,79.23-80.8c8.18-10.65,16.57-22.4,24.94-35.28h40.85c9.91,15.26,19.85,28.93,29.44,41.06C997.84,606.57,1032.1,630.38,1032.1,630.38Z" transform="translate(-782.91 -446.16)"/><path class="cls-2" d="M915,537.36l6.38,13.28L908.65,540l-23.74,12.94L890,542l-27.83,7.66-.05,0c8.18-10.65,16.57-22.4,24.94-35.28h40.85c9.91,15.26,19.85,28.93,29.44,41.06Z" transform="translate(-782.91 -446.16)"/></svg>